<svg version="1.1" width="627.4462276979883" height="272.2152000000001" id="svg108" viewBox="78.79096555974961 463.57439999999997 627.4462276979883 272.2152000000001" sodipodi:docname="zox0i-gzwji.cdr" xmlns:inkscape="http://www.inkscape.org/namespaces/inkscape" xmlns:sodipodi="http://sodipodi.sourceforge.net/DTD/sodipodi-0.dtd" xmlns="http://www.w3.org/2000/svg" xmlns:svg="http://www.w3.org/2000/svg">
  <defs id="defs108"></defs>
  <sodipodi:namedview id="namedview108" pagecolor="#ffffff" bordercolor="#000000" borderopacity="0.25" inkscape:showpageshadow="2" inkscape:pageopacity="0.0" inkscape:pagecheckerboard="0" inkscape:deskcolor="#d1d1d1" inkscape:document-units="pt"></sodipodi:namedview>
  <g id="Layer1000">
    <g id="Layer1001">
      <g id="Layer1002">
        <path d="m 242.5355,631.7499 c 3.3113,-7.6118 5.2574,-15.7956 5.5704,-24.3269 h 6.4015 c -0.2903,8.4923 -2.0893,16.6653 -5.1674,24.3269 z m 5.6146,-27.0998 c -0.0189,-3.8055 -0.3636,-7.5459 -1.0095,-11.2027 h 6.4677 c 0.6019,3.6632 0.9226,7.4026 0.9402,11.2027 z M 246.59,590.6744 c -0.9474,-4.291 -2.3119,-8.4563 -4.0543,-12.4631 h 6.8043 c 1.6154,4.0227 2.8788,8.1864 3.7564,12.4631 z" style="fill:#005da9;fill-rule:evenodd" id="path1"></path>
        <path d="m 312.0407,631.7499 c 3.3113,-7.6118 5.2573,-15.7956 5.5704,-24.3269 h 6.4015 c -0.2903,8.4923 -2.0894,16.6653 -5.1675,24.3269 z m 5.6145,-27.0998 c -0.0189,-3.8055 -0.3636,-7.5459 -1.0095,-11.2027 h 6.4678 c 0.6019,3.6632 0.9226,7.4026 0.9402,11.2027 z m -1.5601,-13.9757 c -0.9474,-4.291 -2.3118,-8.4563 -4.0543,-12.4631 h 6.8043 c 1.6155,4.0227 2.8788,8.1864 3.7565,12.4631 z" style="fill:#005da9;fill-rule:evenodd" id="path2"></path>
        <path d="m 257.1205,588.7822 v -2.773 h 18.6975 v 2.773 z" style="fill:#005da9;fill-rule:evenodd" id="path3"></path>
        <path d="m 257.1205,607.4707 v -2.7729 h 18.6975 v 2.7729 z" style="fill:#005da9;fill-rule:evenodd" id="path4"></path>
        <path d="m 278.4861,583.7575 c 0,-2.6144 3.3822,-5.5459 6.3983,-5.5459 h 19.1584 v 2.7729 h -15.9592 c -1.5079,0 -3.1992,1.4659 -3.1992,2.773 v 47.9927 h -6.3983 z" style="fill:#005da9;fill-rule:evenodd" id="path5"></path>
        <path d="m 269.6684,626.2043 c 0,2.6144 -3.3821,5.5459 -6.3983,5.5459 h -6.1496 v -2.7729 h 2.9504 c 1.508,0 3.1992,-1.4659 3.1992,-2.773 v -47.9927 h 6.3983 z" style="fill:#005da9;fill-rule:evenodd" id="path6"></path>
        <path d="m 284.8844,596.2203 h 19.1584 v -2.7729 h -19.1584 z" style="fill:#005da9;fill-rule:evenodd" id="path7"></path>
        <path d="m 297.6627,593.4474 v 38.3028 h -6.3983 v -38.3028 z" style="fill:#005da9;fill-rule:evenodd" id="path8"></path>
        <path d="m 328.7963,583.7575 c 0,-2.6144 3.3821,-5.5459 6.3983,-5.5459 h 38.3533 v 2.7729 h -35.1541 c -1.507,0 -3.1992,1.4668 -3.1992,2.773 v 47.9927 h -6.3983 z" style="fill:#005da9;fill-rule:evenodd" id="path9"></path>
        <path d="m 339.9934,590.6744 h 33.5545 v 2.773 h -33.5545 z" style="fill:#005da9;fill-rule:evenodd" id="path10"></path>
        <path d="m 359.9697,585.1439 v 6.598 h -6.3983 v -6.598 z" style="fill:#005da9;fill-rule:evenodd" id="path11"></path>
        <path d="m 339.9934,599.1347 h 33.5545 v 2.7729 h -33.5545 z" style="fill:#005da9;fill-rule:evenodd" id="path12"></path>
        <path d="m 339.9934,607.595 h 22.3575 v 2.7729 h -22.3575 z" style="fill:#005da9;fill-rule:evenodd" id="path13"></path>
        <path d="m 359.9697,608.8277 v 6.5979 h -6.3983 v -6.5979 z" style="fill:#005da9;fill-rule:evenodd" id="path14"></path>
        <path d="m 359.9697,626.2043 c 0,2.6144 -3.3821,5.5459 -6.3983,5.5459 h -6.1496 v -2.7729 h 2.9504 c 1.508,0 3.1992,-1.4659 3.1992,-2.773 V 608.714 h 6.3983 z" style="fill:#005da9;fill-rule:evenodd" id="path15"></path>
        <path d="m 346.3917,592.9171 v 15.5096 h -6.3983 v -15.5096 z" style="fill:#005da9;fill-rule:evenodd" id="path16"></path>
        <path d="m 373.5479,604.822 c 0,2.6143 -3.3821,5.5459 -6.3983,5.5459 H 361 v -2.7729 h 2.9504 c 1.508,0 3.1992,-1.466 3.1992,-2.773 v -13.3309 h 6.3983 z" style="fill:#005da9;fill-rule:evenodd" id="path17"></path>
        <path d="m 336.7942,631.7499 c 2.3808,-5.4731 4.0556,-11.2416 4.9253,-17.2226 h 6.4458 c -0.8062,5.9573 -2.3565,11.7215 -4.5666,17.2226 z" style="fill:#005da9;fill-rule:evenodd" id="path18"></path>
        <path d="m 376.7471,631.7499 c -2.3808,-5.4731 -4.0556,-11.2416 -4.9253,-17.2226 h -6.4458 c 0.8062,5.9573 2.3565,11.7215 4.5666,17.2226 z" style="fill:#005da9;fill-rule:evenodd" id="path19"></path>
        <path d="m 388.744,578.2116 h 6.3983 v 47.9927 l -6.3983,2.773 z" style="fill:#005da9;fill-rule:evenodd" id="path20"></path>
        <path d="m 381.5458,580.9845 h 20.7946 v -2.7729 h -20.7946 z" style="fill:#005da9;fill-rule:evenodd" id="path21"></path>
        <path d="m 381.5458,596.2203 h 20.7946 v -2.7729 h -20.7946 z" style="fill:#005da9;fill-rule:evenodd" id="path22"></path>
        <path d="m 381.5458,631.7502 20.7946,-4.8295 V 624.05 l -20.7946,4.8295 z" style="fill:#005da9;fill-rule:evenodd" id="path23"></path>
        <path d="m 443.0531,580.9845 h -36.7904 v -2.7729 h 36.7904 z" style="fill:#005da9;fill-rule:evenodd" id="path24"></path>
        <path d="m 421.4587,578.2116 v 53.5386 h 6.3984 v -53.5386 z" style="fill:#005da9;fill-rule:evenodd" id="path25"></path>
        <path d="m 428.0952,578.2116 c -2.9825,15.0349 -10.7269,28.6897 -21.8325,39.7475 v -8.8925 c 7.5614,-9.0088 12.9077,-19.4973 15.3328,-30.855 z" style="fill:#005da9;fill-rule:evenodd" id="path26"></path>
        <path d="m 439.1786,617.9591 c -5.1104,-10.0541 -7.956,-21.1552 -7.956,-32.8152 h 6.3983 c 0,11.7362 3.0878,22.8675 8.5931,32.8152 z" style="fill:#005da9;fill-rule:evenodd" id="path27"></path>
        <path d="m 455.8497,578.2116 h 6.3984 v 49.3792 l -6.3984,2.7729 z" style="fill:#005da9;fill-rule:evenodd" id="path28"></path>
        <path d="m 451.051,596.2203 h 15.9958 v -2.7729 H 451.051 Z" style="fill:#005da9;fill-rule:evenodd" id="path29"></path>
        <path d="m 451.051,631.7502 15.9958,-3.715 v -2.8707 l -15.9958,3.715 z" style="fill:#005da9;fill-rule:evenodd" id="path30"></path>
        <path d="M 510.2355,596.2203 H 470.246 v -2.7729 h 39.9895 z" style="fill:#005da9;fill-rule:evenodd" id="path31"></path>
        <path d="M 510.2355,585.1439 H 470.246 v -2.7729 h 39.9895 z" style="fill:#005da9;fill-rule:evenodd" id="path32"></path>
        <path d="m 493.4399,578.2116 v 6.5979 h -6.3983 v -6.5979 z" style="fill:#005da9;fill-rule:evenodd" id="path33"></path>
        <g id="Layer1003">
          <path d="m 481.7582,587.9169 3.6838,5.5305 h -7.3882 l -3.6838,-5.5305 z" style="fill:#005da9;fill-rule:evenodd" id="path34"></path>
          <path d="m 498.7233,587.9169 -3.6838,5.5305 h 7.3881 l 3.6839,-5.5305 z" style="fill:#005da9;fill-rule:evenodd" id="path35"></path>
        </g>
        <path d="m 494.4884,626.2043 c 0,2.6144 3.3822,5.5459 6.3983,5.5459 h 9.3488 v -2.7729 h -6.1496 c -1.5079,0 -3.1992,-1.4659 -3.1992,-2.773 v -9.1715 h -6.3983 z" style="fill:#005da9;fill-rule:evenodd" id="path36"></path>
        <path d="m 508.6359,598.9933 h -36.7904 v 2.7729 h 36.7904 z" style="fill:#005da9;fill-rule:evenodd" id="path37"></path>
        <path d="m 471.8455,599.0087 h 6.3984 v 18.8768 h -6.3984 z" style="fill:#005da9;fill-rule:evenodd" id="path38"></path>
        <path d="m 508.6359,607.0452 h -36.7904 v 2.773 h 36.7904 z" style="fill:#005da9;fill-rule:evenodd" id="path39"></path>
        <path d="m 508.6359,615.0972 h -36.7904 v 2.7729 h 36.7904 z" style="fill:#005da9;fill-rule:evenodd" id="path40"></path>
        <path d="m 502.2376,598.9933 h 6.3983 v 18.8768 h -6.3983 z" style="fill:#005da9;fill-rule:evenodd" id="path41"></path>
        <path d="m 474.6219,631.7499 c 2.0925,-4.8102 3.6392,-9.8484 4.5737,-15.0586 h 6.4703 c -0.866,5.191 -2.2981,10.2262 -4.2395,15.0586 z" style="fill:#005da9;fill-rule:evenodd" id="path42"></path>
      </g>
      <path d="m 263.8423,646.1952 h -21.3034 v -5.2163 h 26.5199 4.7572 v 2.6133 l -21.3092,21.3047 h 21.3092 v 5.2163 h -26.5269 -4.7502 v -2.6134 z m 206.0634,23.918 -13.5813,-29.1343 h -0.2018 -7.2859 -0.2007 l -13.572,29.1343 h 7.475 l 3.1494,-6.7544 h 13.5836 l 3.1494,6.7544 z m -17.4255,-21.3209 4.3628,9.3561 h -8.7255 z m 29.7609,-0.1717 21.2071,21.2165 v 0.2761 h 0.2761 5.394 1.1136 v -29.1343 h -6.7837 v 21.4856 l -21.2071,-21.2107 v -0.2749 h -0.2749 -5.3928 -1.1124 v 29.1343 h 6.7801 z m -68.2984,21.4926 h 10.4238 c 2.8501,0 5.2107,-2.3651 5.2107,-5.2163 v -23.918 h -6.7848 v 23.918 h -8.8497 -3.509 -8.8484 v -23.918 h -6.7826 v 23.918 c 0,2.8512 2.3606,5.2163 5.2108,5.2163 h 10.4202 z m -59.4685,-29.1343 13.9896,13.9912 v 15.1431 h 6.786 v -15.1408 l 13.9942,-13.9935 h -7.3648 l -10.0212,10.0138 -10.0155,-10.0138 z m -5.5575,29.1343 H 326.48 319.7021 v -5.2163 -6.7485 -5.2059 -6.7473 -5.2163 h 6.7779 22.4367 v 5.2163 H 326.48 v 6.7473 h 22.4367 v 5.2059 H 326.48 v 6.7485 h 22.4367 z m -41.5512,0 v -11.9648 h -21.2164 v 11.9648 h -6.7802 v -29.1343 h 6.7802 v 11.9636 h 21.2164 v -11.9636 h 6.779 v 29.1343 z" style="fill:#0057a4;fill-rule:evenodd" id="path43"></path>
    </g>
    <path d="m 129.0708,561.2683 c 34.6402,-12.608 73.1764,5.3616 85.7844,40.002 3.2187,8.8433 4.4436,17.9402 3.908,26.7951 -0.1577,2.6089 -2.0548,4.9769 -4.4908,5.8634 l -59.6008,21.6929 c -2.7028,0.9838 -5.2374,0.4323 -7.0622,-1.0991 l -11.1422,-9.3496 c -2.1742,-1.8243 -2.9244,-5.2513 -1.8757,-7.6629 l 6.3237,-14.5438 c 1.1363,-2.6131 -1.479,-4.9667 -3.83,-4.1109 l -33.2306,12.0949 c -4.8764,1.7749 -5.7803,8.3036 -1.8962,11.5627 l 30.0412,25.2075 c 8.7365,7.3309 19.8879,10.3516 32.5759,5.7336 l 45.7585,-16.6547 c -7.5602,13.5487 -19.8154,24.5536 -35.4807,30.2553 -34.6402,12.608 -73.1765,-5.3617 -85.7845,-40.0019 -3.1658,-8.6981 -4.4028,-17.6419 -3.9329,-26.3593 0.156,-2.8941 1.8066,-5.3157 4.5555,-6.3161 l 59.5548,-21.6762 c 2.7028,-0.9837 5.2374,-0.4323 7.0622,1.0991 l 11.1422,9.3496 c 2.1742,1.8244 2.9244,5.2513 1.8757,7.663 l -6.3237,14.5438 c -1.1363,2.613 1.479,4.9666 3.83,4.1109 l 33.2306,-12.095 c 4.8764,-1.7748 5.7803,-8.3036 1.8962,-11.5627 l -30.0412,-25.2075 c -8.7365,-7.3308 -19.8879,-10.3516 -32.5759,-5.7336 l -45.7509,16.652 c 7.5603,-13.5476 19.815,-24.5511 35.4794,-30.2525 z" style="fill:#0057a4;fill-rule:evenodd" id="path44"></path>
  </g>
  <g id="Layer1004">
    <g id="Layer1005">
      <path d="M 127.7071,293.2685 H 85.0393 v -8.2766 h 42.1196 z" style="fill:#0057a4;fill-rule:evenodd" id="path45"></path>
      <path d="M 134.7145,331.2607 H 92.5949 l -0.5482,-8.2766 h 42.6678 z" style="fill:#0057a4;fill-rule:evenodd" id="path46"></path>
      <path d="m 134.7144,289.1413 -42.1195,42.1194 h -7.5556 v -4.1493 l 42.1196,-42.1195 h 7.5555 z" style="fill:#0057a4;fill-rule:evenodd" id="path47"></path>
      <path d="m 143.5394,331.2607 v -46.2688 h 10.7717 v 46.2688 z" style="fill:#0057a4;fill-rule:evenodd" id="path48"></path>
      <path d="m 189.5786,312.2646 h -40.8504 v -8.2766 h 40.8504 z" style="fill:#0057a4;fill-rule:evenodd" id="path49"></path>
      <path d="m 188.0004,331.2607 v -46.2688 h 10.7717 v 46.2688 z" style="fill:#0057a4;fill-rule:evenodd" id="path50"></path>
      <path d="m 207.5969,331.2607 v -46.2688 h 10.7718 v 46.2688 z" style="fill:#0057a4;fill-rule:evenodd" id="path51"></path>
      <path d="m 254.0051,293.2685 h -46.4082 v -8.2766 h 46.4082 z" style="fill:#0057a4;fill-rule:evenodd" id="path52"></path>
      <path d="m 254.0051,312.2646 h -46.4082 v -8.2766 h 46.4082 z" style="fill:#0057a4;fill-rule:evenodd" id="path53"></path>
      <path d="m 254.0051,331.2603 h -46.4082 v -8.2759 h 46.4082 z" style="fill:#0057a4;fill-rule:evenodd" id="path54"></path>
      <path d="m 285.0605,331.2607 v -26.8543 h 10.7717 v 26.8543 z" style="fill:#0057a4;fill-rule:evenodd" id="path55"></path>
      <path d="m 318.0628,284.9919 -27.616,27.616 V 300.903 l 15.9112,-15.9111 z" style="fill:#0057a4;fill-rule:evenodd" id="path56"></path>
      <path d="m 262.8308,284.9919 27.616,27.616 V 300.903 l -15.9111,-15.9111 z" style="fill:#0057a4;fill-rule:evenodd" id="path57"></path>
      <path d="m 357.2929,331.2607 h -22.1293 c -4.527,0 -8.2759,-3.7485 -8.2759,-8.2766 v -37.9922 h 10.7717 v 37.9922 h 19.6335 z" style="fill:#0057a4;fill-rule:evenodd" id="path58"></path>
      <path d="m 351.7154,331.2607 h 22.1293 c 4.5269,0 8.2759,-3.7485 8.2759,-8.2766 v -37.9922 h -10.7718 v 37.9922 h -19.6334 z" style="fill:#0057a4;fill-rule:evenodd" id="path59"></path>
      <path d="M 432.5274,312.2646 H 402.789 v 8.2766 h 29.7384 z" style="fill:#0057a4;fill-rule:evenodd" id="path60"></path>
      <path d="m 455.0032,331.2607 v -46.2688 h 10.7717 v 46.2688 z" style="fill:#0057a4;fill-rule:evenodd" id="path61"></path>
      <path d="m 499.4644,331.2607 v -46.2688 h 10.7717 v 46.2688 z" style="fill:#0057a4;fill-rule:evenodd" id="path62"></path>
      <path d="m 456.7681,288.127 43.1331,43.133 h 8.57 v -3.135 l -43.1333,-43.1331 h -8.5698 z" style="fill:#0057a4;fill-rule:evenodd" id="path63"></path>
      <path d="m 390.8312,331.26 21.5753,-46.2681 h 11.8851 L 402.7163,331.26 Z" style="fill:#0057a4;fill-rule:evenodd" id="path64"></path>
      <path d="M 446.1784,331.2603 424.6031,284.9922 H 412.718 l 21.5753,46.2681 z" style="fill:#0057a4;fill-rule:evenodd" id="path65"></path>
    </g>
    <g id="Layer1006">
      <path d="m 212.5983,393.1654 c 2.1038,-4.8361 3.3402,-10.0356 3.5391,-15.4559 h 4.0671 c -0.1845,5.3955 -1.3275,10.5881 -3.2831,15.4559 z m 3.5671,-17.2176 c -0.012,-2.4178 -0.231,-4.7942 -0.6413,-7.1175 h 4.1091 c 0.3824,2.3273 0.5862,4.7032 0.5974,7.1175 z m -0.9911,-8.8793 c -0.602,-2.7262 -1.4689,-5.3727 -2.5759,-7.9183 h 4.323 c 1.0263,2.5558 1.829,5.2011 2.3866,7.9183 z" style="fill:#0057a4;fill-rule:evenodd" id="path66"></path>
      <path d="m 256.7573,393.1654 c 2.1037,-4.8361 3.3401,-10.0356 3.539,-15.4559 h 4.0671 c -0.1844,5.3955 -1.3274,10.5881 -3.283,15.4559 z m 3.5671,-17.2176 c -0.012,-2.4178 -0.231,-4.7942 -0.6414,-7.1175 h 4.1092 c 0.3824,2.3273 0.5862,4.7032 0.5973,7.1175 z m -0.9912,-8.8793 c -0.6019,-2.7262 -1.4688,-5.3727 -2.5758,-7.9183 h 4.323 c 1.0263,2.5558 1.8289,5.2011 2.3866,7.9183 z" style="fill:#0057a4;fill-rule:evenodd" id="path67"></path>
      <path d="m 221.8646,365.8663 v -1.7618 h 11.8792 v 1.7618 z" style="fill:#0057a4;fill-rule:evenodd" id="path68"></path>
      <path d="m 221.8646,377.7398 v -1.7617 h 11.8792 v 1.7617 z" style="fill:#0057a4;fill-rule:evenodd" id="path69"></path>
      <path d="m 235.4389,362.6739 c 0,-1.661 2.1488,-3.5236 4.0651,-3.5236 h 12.1719 v 1.7618 h -10.1394 c -0.958,0 -2.0325,0.9314 -2.0325,1.7618 v 30.4917 h -4.0651 z" style="fill:#0057a4;fill-rule:evenodd" id="path70"></path>
      <path d="m 229.8368,389.642 c 0,1.661 -2.1488,3.5236 -4.0651,3.5236 h -3.9071 v -1.7618 h 1.8745 c 0.9581,0 2.0326,-0.9313 2.0326,-1.7618 v -30.4917 h 4.0651 z" style="fill:#0057a4;fill-rule:evenodd" id="path71"></path>
      <path d="m 239.504,370.592 h 12.1719 v -1.7617 H 239.504 Z" style="fill:#0057a4;fill-rule:evenodd" id="path72"></path>
      <path d="m 247.6224,368.8303 v 24.3353 h -4.065 v -24.3353 z" style="fill:#0057a4;fill-rule:evenodd" id="path73"></path>
      <path d="m 267.4027,362.6739 c 0,-1.661 2.1488,-3.5236 4.065,-3.5236 h 24.3672 v 1.7618 h -22.3346 c -0.9575,0 -2.0326,0.9319 -2.0326,1.7618 v 30.4917 h -4.065 z" style="fill:#0057a4;fill-rule:evenodd" id="path74"></path>
      <path d="m 274.5165,367.0685 h 21.3184 v 1.7618 h -21.3184 z" style="fill:#0057a4;fill-rule:evenodd" id="path75"></path>
      <path d="m 287.2082,363.5547 v 4.192 h -4.0651 v -4.192 z" style="fill:#0057a4;fill-rule:evenodd" id="path76"></path>
      <path d="m 274.5165,372.4436 h 21.3184 v 1.7618 h -21.3184 z" style="fill:#0057a4;fill-rule:evenodd" id="path77"></path>
      <path d="m 274.5165,377.8188 h 14.2045 v 1.7617 h -14.2045 z" style="fill:#0057a4;fill-rule:evenodd" id="path78"></path>
      <path d="m 287.2082,378.602 v 4.1919 h -4.0651 v -4.1919 z" style="fill:#0057a4;fill-rule:evenodd" id="path79"></path>
      <path d="m 287.2082,389.642 c 0,1.661 -2.1488,3.5236 -4.0651,3.5236 h -3.907 v -1.7618 h 1.8745 c 0.958,0 2.0325,-0.9313 2.0325,-1.7618 v -11.1123 h 4.0651 z" style="fill:#0057a4;fill-rule:evenodd" id="path80"></path>
      <path d="m 278.5816,368.4933 v 9.8539 h -4.0651 v -9.8539 z" style="fill:#0057a4;fill-rule:evenodd" id="path81"></path>
      <path d="m 295.8349,376.057 c 0,1.661 -2.1488,3.5235 -4.0651,3.5235 h -3.907 v -1.7617 h 1.8745 c 0.958,0 2.0325,-0.9314 2.0325,-1.7618 v -8.4697 h 4.0651 z" style="fill:#0057a4;fill-rule:evenodd" id="path82"></path>
      <path d="m 272.484,393.1654 c 1.5126,-3.4773 2.5767,-7.1423 3.1292,-10.9422 h 4.0952 c -0.5122,3.7849 -1.4971,7.4471 -2.9013,10.9422 z" style="fill:#0057a4;fill-rule:evenodd" id="path83"></path>
      <path d="m 297.8674,393.1654 c -1.5126,-3.4773 -2.5766,-7.1423 -3.1292,-10.9422 h -4.0952 c 0.5122,3.7849 1.4971,7.4471 2.9013,10.9422 z" style="fill:#0057a4;fill-rule:evenodd" id="path84"></path>
      <path d="m 305.4894,359.1503 h 4.0651 v 30.4917 l -4.0651,1.7618 z" style="fill:#0057a4;fill-rule:evenodd" id="path85"></path>
      <path d="m 300.9162,360.9121 h 13.2115 v -1.7618 h -13.2115 z" style="fill:#0057a4;fill-rule:evenodd" id="path86"></path>
      <path d="m 300.9162,370.592 h 13.2115 v -1.7617 h -13.2115 z" style="fill:#0057a4;fill-rule:evenodd" id="path87"></path>
      <path d="m 300.9162,393.1656 13.2115,-3.0684 v -1.8239 l -13.2115,3.0684 z" style="fill:#0057a4;fill-rule:evenodd" id="path88"></path>
      <path d="m 339.9938,360.9121 h -23.3741 v -1.7618 h 23.3741 z" style="fill:#0057a4;fill-rule:evenodd" id="path89"></path>
      <path d="m 326.2742,359.1503 v 34.0153 h 4.0651 v -34.0153 z" style="fill:#0057a4;fill-rule:evenodd" id="path90"></path>
      <path d="m 330.4906,359.1503 c -1.8949,9.5523 -6.8152,18.2278 -13.8709,25.2532 v -5.6498 c 4.804,-5.7236 8.2007,-12.3874 9.7414,-19.6034 z" style="fill:#0057a4;fill-rule:evenodd" id="path91"></path>
      <path d="m 337.5322,384.4035 c -3.2467,-6.3878 -5.0547,-13.4407 -5.0547,-20.8488 h 4.0651 c 0,7.4565 1.9618,14.5287 5.4595,20.8488 z" style="fill:#0057a4;fill-rule:evenodd" id="path92"></path>
      <path d="m 348.124,359.1503 h 4.065 v 31.3726 l -4.065,1.7618 z" style="fill:#0057a4;fill-rule:evenodd" id="path93"></path>
      <path d="m 345.0752,370.592 h 10.1626 v -1.7617 h -10.1626 z" style="fill:#0057a4;fill-rule:evenodd" id="path94"></path>
      <path d="m 345.0752,393.1656 10.1626,-2.3603 v -1.8239 l -10.1626,2.3603 z" style="fill:#0057a4;fill-rule:evenodd" id="path95"></path>
      <path d="m 382.6771,370.592 h -25.4067 v -1.7617 h 25.4067 z" style="fill:#0057a4;fill-rule:evenodd" id="path96"></path>
      <path d="m 382.6771,363.5547 h -25.4067 v -1.7617 h 25.4067 z" style="fill:#0057a4;fill-rule:evenodd" id="path97"></path>
      <path d="m 372.0063,359.1503 v 4.192 h -4.0651 v -4.192 z" style="fill:#0057a4;fill-rule:evenodd" id="path98"></path>
      <g id="Layer1007">
        <path d="m 364.5845,365.3165 2.3404,3.5138 h -4.6939 l -2.3405,-3.5138 z" style="fill:#0057a4;fill-rule:evenodd" id="path99"></path>
        <path d="m 375.363,365.3165 -2.3405,3.5138 h 4.694 l 2.3404,-3.5138 z" style="fill:#0057a4;fill-rule:evenodd" id="path100"></path>
      </g>
      <path d="m 372.6724,389.642 c 0,1.661 2.1488,3.5236 4.0651,3.5236 h 5.9396 v -1.7618 H 378.77 c -0.958,0 -2.0325,-0.9313 -2.0325,-1.7618 v -5.827 h -4.0651 z" style="fill:#0057a4;fill-rule:evenodd" id="path101"></path>
      <path d="m 381.6608,372.3538 h -23.3742 v 1.7617 h 23.3742 z" style="fill:#0057a4;fill-rule:evenodd" id="path102"></path>
      <path d="m 358.2866,372.3636 h 4.0651 v 11.9932 h -4.0651 z" style="fill:#0057a4;fill-rule:evenodd" id="path103"></path>
      <path d="m 381.6608,377.4695 h -23.3742 v 1.7618 h 23.3742 z" style="fill:#0057a4;fill-rule:evenodd" id="path104"></path>
      <path d="m 381.6608,382.5852 h -23.3742 v 1.7618 h 23.3742 z" style="fill:#0057a4;fill-rule:evenodd" id="path105"></path>
      <path d="m 377.5957,372.3538 h 4.0651 v 11.9932 h -4.0651 z" style="fill:#0057a4;fill-rule:evenodd" id="path106"></path>
      <path d="m 360.0506,393.1654 c 1.3294,-3.0561 2.3121,-6.2571 2.9058,-9.5673 h 4.1108 c -0.5502,3.298 -1.4601,6.4971 -2.6935,9.5673 z" style="fill:#0057a4;fill-rule:evenodd" id="path107"></path>
    </g>
    <path d="m 272.185,121.27 c 38.5158,-14.0185 81.3634,5.9616 95.382,44.4774 3.5788,9.8326 4.9408,19.9474 4.3452,29.7929 -0.1753,2.9008 -2.2847,5.5337 -4.9931,6.5193 l -66.2691,24.12 c -3.0051,1.0938 -5.8233,0.4806 -7.8523,-1.2221 l -12.3888,-10.3956 c -2.4175,-2.0285 -3.2515,-5.8388 -2.0856,-8.5203 l 7.0313,-16.1709 c 1.2634,-2.9054 -1.6445,-5.5223 -4.2586,-4.5708 l -36.9484,13.4481 c -5.422,1.9734 -6.427,9.2326 -2.1084,12.8563 l 33.4022,28.0277 c 9.714,8.151 22.1131,11.5097 36.2206,6.375 l 50.878,-18.518 c -8.4061,15.0645 -22.0324,27.3006 -39.4504,33.6403 -38.5157,14.0185 -81.3635,-5.9617 -95.3821,-44.4773 -3.52,-9.6713 -4.8954,-19.6156 -4.3729,-29.3083 0.1734,-3.2179 2.0087,-5.9105 5.0652,-7.0228 l 66.2178,-24.1013 c 3.0052,-1.0938 5.8233,-0.4806 7.8524,1.2221 l 12.3888,10.3956 c 2.4175,2.0285 3.2515,5.8388 2.0855,8.5203 l -7.0312,16.1709 c -1.2634,2.9054 1.6444,5.5223 4.2585,4.5708 l 36.9485,-13.4481 c 5.4219,-1.9734 6.427,-9.2326 2.1083,-12.8562 l -33.4022,-28.0278 c -9.714,-8.151 -22.113,-11.5097 -36.2206,-6.375 l -50.8695,18.5149 c 8.4062,-15.0632 22.0319,-27.2978 39.4489,-33.6371 z" style="fill:#0057a4;fill-rule:evenodd" id="path108"></path>
  </g>
</svg>